<svg width="1200" height="1042" fill="none" xmlns="http://www.w3.org/2000/svg"><g opacity=".05" fill="#231F20" clip-path="url(#a)"><path d="m757.9 441.1-63.2-36.5-31.6 18.3 94.8 54.7 94.7-54.7V313.5L821 331.7v73L758 441Z"/><path d="m726.3 386.4 31.6 18.2 31.6-18.2V350l-63.2 36.4ZM63.2 423l31.5-18.3 63.2 36.5 63.1-36.5v-72.9l31.6-18.2V423L158 477.6l-94.7-54.7Z"/><path d="m126.3 386.4 31.6 18.2 31.6-18.2V350l-63.2 36.5ZM518 923.7l-63.2 36.5-63.1-36.5 31.6-18.2 31.5 18.2 31.6-18.2V869l-63.1 36.5L360 942l94.7 54.7 94.8-54.7V832.6l-31.6 18.2v73Zm600 0v-72.9l31.6-18.2v109.3l-94.8 54.7L960 942l63.2-36.4-31.6 18.2 63.1 36.5 63.2-36.5Z"/><path d="M1086.3 869v36.5l-31.6 18.2-31.5-18.2 63.1-36.5Z"/><path fill-rule="evenodd" clip-rule="evenodd" d="M1181 0v100.5l-126.3 73-126.3-73V0H897v9.3L802 64v109.4l94.7 54.7 94.8-54.7 31.6 18.2-126.3 73-126.3-73V45.8L849.8 0h-63.2l-16.2 9.3-16-9.3h-30.8l-16.2 9.3v36.5L739 64v36.5L675.8 64V0h-31.6v82.3L739 137v36.4l-126.4-72.9V0h-31.5v100.5l-126.4 72.9-126.3-73V0h-31.6v9.3L202.1 64v109.4l94.7 54.7 94.8-54.7 31.5 18.2-126.3 73-126.3-73V45.8L250 0h-63.2l-16.2 9.3L154.4 0h-30.8l-16.2 9.3v36.5L139 64v36.5L75.8 64V0H44.2v82.3L139 137v36.4L12.6 100.5V0H0v131.2l126.3 73V350L0 422.9v-36.5l94.8-54.7V222.3L0 167.6v36.5l63.2 36.5v72.9L0 349.9v-36.4l31.6-18.2v-36.5L0 240.6V678l31.6-18.2L63.2 678 0 714.6V751l94.7-54.7 29.6 17L0 785.3V1042h12.6v-45.4L139 923.8l126.4 73-31.6 18.2-94.7-54.7-94.8 54.7v27.1h31.6v-8.9l63.1-36.5 63.2 36.5-15.4 8.9H250l47-27.1v27.1h31.5v-45.4L360 1015v27.1h31.6v-8.9l15.4 8.9h95.5l15.4-8.9v8.9h31.6V1015l31.5-18.3v45.4h31.6v-45.4L739 923.8l126.4 73-31.6 18.2-94.7-54.7-94.8 54.7v27.1h31.6v-8.9l63.1-36.5 63.2 36.5-15.4 8.9H850l47-27.1v27.1h31.5v-45.4L960 1015v27.1h31.6v-8.9l15.4 8.9h95.5l15.4-8.9v8.9h31.6V1015l31.6-18.3v45.4h18.9V787.5l-126.3-73V568.8l126.3-73V240.7l-31.6 18.2-31.6-18.2L1200 204v-36.5l-94.7 54.7-31.6-18.2 126.3-73V0h-19ZM897 191.6l-63.2-36.4v-73l63.1-36.4v36.5l-31.5 18.2V137l31.5 18.2 31.6-18.2 31.6 18.2-63.2 36.4Zm-600 0-63.2-36.4v-73l63.1-36.4v36.5l-31.5 18.2V137l31.5 18.2 31.6-18.2 31.6 18.2-63.2 36.4Zm587.3 286V621L756 695l-124.3-71.7V477.6l31.5 18.2v109.4l94.8 54.7 94.7-54.7V495.8l31.6-18.2ZM600 678l31.6-18.2 31.6 18.2-63.2 36.5-63.2-36.5v-73l63.2-36.4v36.5l-31.6 18.2v36.5L600 678Zm126.3-109.4 31.6 18.2 31.6-18.2v-36.5L821 514v73l-63.2 36.4-63.1-36.5V514l31.5 18.3v36.4Zm63-219-31.4-18v-36.5l62.8 36.3 31.6-18.2-94.4-54.5v-36.5L883.8 295l.4.3V441l-126.3 73-126.3-73 157.6-91.3ZM473.6 204.2l126.3-73 126.3 73V350L600 422.9v-36.5l94.7-54.7V222.3L600 167.6l-94.7 54.7-31.6-18.2ZM600 240.6l-31.6 18.2-31.6-18.2L600 204l63.1 36.5v72.9L600 349.9v-36.4l31.6-18.2v-36.5L600 240.6Zm-158-18.3 126.4 73V441l-31.6-18.2V313.5l-94.7-54.7-94.7 54.7v109.4L315.8 441V295.3l126.3-73Zm.1 364.6v36.5L378.9 587v-73l63.2-36.4 63.2 36.4-31.6 18.2L442 514l-31.6 18.2v36.5l31.6 18.2Zm0-145.8-94.7 54.7v109.4l94.7 54.7v36.4l-126.3-72.9V477.6l126.3-73 126.3 73-31.6 18.2-94.7-54.7Zm31.6-91.2L442 331.8 410.5 350v36.4L379 404.6v-72.9l63.2-36.4 63.2 36.4v73l-31.6-18.3V350ZM31.9 441l157.3-91.1-31.3-18v-36.5l62.8 36.2 31.6-18.2-94.4-54.5v-36.5L283.8 295l.4.3V441l-126.3 73-126.3-73 .3-.2Zm126 146 31.6-18.2v-36.5L221 514v73l-63.2 36.4-63.2-36.5V514l31.6 18.3v36.4L158 587ZM31.6 623.4V477.6l31.6 18.2v109.4l94.7 54.7 94.7-54.7V495.8l31.6-18.2V621l-128.3 74-124.3-71.7ZM202 923.7l-31.6-18.2V869L139 850.8 107.4 869v36.5l-31.6 18.2v-72.9l63.1-36.4 63.2 36.4v73Zm63.2 36.5L233.7 942V832.6l-94.8-54.7-94.7 54.7V942l-31.6 18.2V814.3L139 741.5l126.4 73v145.8Zm0-182.3-31.6-18.2 63.1-36.5 63.2 36.4v73l-63 36.4v-36.4l31.5-18.3V778l-31.6-18.2-31.5 18.2Zm31.5 164v-36.4l94.8-54.7V741.4l-94.8-54.7-94.7 54.7-31.6-18.2 126.3-73 126.3 73V869l-126.3 73ZM581 960.3l-126.3 73-126.3-73L486.1 869l-31.4-18.1v-36.5l62.9 36.3 31.5-18.2-94.4-54.5v-36.5l126 72.7.3.3v145.8Zm17-173.9-124.3-71.7v-146l126.3-73v36.5L505.3 587v109.4L600 751l94.7-54.7 29.6 17.1-126.3 73Zm204.1 137.4-31.6-18.2V869L739 850.8 707.4 869v36.5l-31.6 18.2v-72.9l63.1-36.4 63.2 36.4v73Zm63.2 36.5L833.7 942V832.6l-94.8-54.7-94.7 54.7V942l-31.6 18.2V814.3L739 741.5l126.4 73v145.8Zm0-182.3-31.6-18.2 63.1-36.5 63.2 36.4v73L896.9 869v-36.4l31.5-18.3V778L897 759.7l-31.6 18.2Zm31.5 164v-36.4l94.8-54.7V741.4l-94.8-54.7-94.7 54.7-31.6-18.2 126.3-73 126.3 73V869l-126.3 73Zm283.8-127.8.5.2v145.9l-126.4 73-126.3-73 157.7-91.3-31.4-18.1v-36.5l62.9 36.3 31.5-18.2-94.4-54.5v-36.5l126 72.7Zm-107-281.9-31.5-18.2-31.6 18.2v36.5l31.6 18.2v36.5L978.9 587v-73l63.2-36.4 63.2 36.4-31.6 18.2Zm63.2-36.4-94.7-54.7-94.7 54.7v109.4l94.7 54.7v36.4l-126.3-72.9V477.6l126.3-73 126.3 73-31.6 18.2ZM1073.7 350l-31.6-18.3-31.6 18.3v36.4L979 404.6v-72.9l63.2-36.4 63.2 36.4v73l-31.6-18.3V350Zm94.7-54.7V441l-31.6-18.2V313.5l-94.7-54.7-94.7 54.7V423l-31.6 18V295.2l126.3-72.9 126.3 73Z"/><path d="m360 82.3 94.7 54.7 94.8-54.8V0h-31.6v64l-63.2 36.5L391.6 64V0H360v82.3Zm745.3 504.6 94.7-54.6v36.4l-63.1 36.5V678l63.1 36.5V751l-94.7-54.7V587Z"/><path d="M1168.4 623.4v36.5L1200 678v-73l-31.6 18.3ZM139 1033.1l15.5 8.9h-30.8l15.4-8.9ZM423.3 45.8V9.3L407 0h95.5l-16.2 9.3v36.5L454.7 64l-31.5-18.2ZM739 1033.1l15.4 8.9h-30.8l15.4-8.9ZM960 82.3V0h31.6v64l63.2 36.5 63.1-36.5V0h31.6v82.3l-94.7 54.7L960 82.1Z"/><path d="m1023.2 45.8 31.5 18.2 31.6-18.2V9.3l16.2-9.3H1007l16.2 9.3v36.5Z"/></g><defs><clipPath id="a"><path fill="#fff" d="M0 0h1200v1042H0z"/></clipPath></defs></svg>